<?xml version="1.0" encoding="UTF-8" standalone="no"?>
<!-- Created with Inkscape (http://www.inkscape.org/) -->

<svg
   width="16"
   height="16"
   viewBox="0 0 4.2333335 4.2333331"
   version="1.1"
   id="svg8"
   sodipodi:docname="blender_community_badge_black.svg"
   inkscape:version="1.1.1 (3bf5ae0d25, 2021-09-20)"
   xmlns:inkscape="http://www.inkscape.org/namespaces/inkscape"
   xmlns:sodipodi="http://sodipodi.sourceforge.net/DTD/sodipodi-0.dtd"
   xmlns="http://www.w3.org/2000/svg"
   xmlns:svg="http://www.w3.org/2000/svg"
   xmlns:rdf="http://www.w3.org/1999/02/22-rdf-syntax-ns#"
   xmlns:cc="http://creativecommons.org/ns#"
   xmlns:dc="http://purl.org/dc/elements/1.1/">
  <defs
     id="defs2" />
  <sodipodi:namedview
     id="base"
     pagecolor="#c8c8c8"
     bordercolor="#666666"
     borderopacity="1.0"
     showgrid="false"
     showguides="true"
     borderlayer="true"
     fit-margin-top="1"
     fit-margin-left="1"
     fit-margin-right="1"
     fit-margin-bottom="1"
     inkscape:pageshadow="0"
     inkscape:pageopacity="0"
     inkscape:pagecheckerboard="0"
     inkscape:document-units="mm"
     units="px"
     width="16px"
     inkscape:zoom="22.627417"
     inkscape:cx="9.5238444"
     inkscape:cy="15.666835"
     inkscape:window-width="1920"
     inkscape:window-height="1052"
     inkscape:window-x="0"
     inkscape:window-y="0"
     inkscape:window-maximized="1"
     inkscape:current-layer="svg8" />
  <metadata
     id="metadata5">
    <rdf:RDF>
      <cc:Work
         rdf:about="">
        <dc:format>image/svg+xml</dc:format>
        <dc:type
           rdf:resource="http://purl.org/dc/dcmitype/StillImage" />
      </cc:Work>
    </rdf:RDF>
  </metadata>
  <ellipse
     style="fill:#363636;fill-opacity:1;stroke-width:0"
     id="path3661"
     cx="2.7296803"
     cy="2.4607637"
     rx="1.0355749"
     ry="0.99611378" />
  <g
     id="layer1"
     transform="matrix(0.31569039,0,0,0.31569039,-32.122419,-45.010863)">
    <g
       transform="translate(-3.8788837,214.53487)"
       id="g1369">
      <g
         style="clip-rule:evenodd;fill:#d8d8d8;fill-opacity:1;fill-rule:evenodd;stroke-linejoin:round;stroke-miterlimit:1.41421"
         id="g1353"
         transform="matrix(0.02054188,0,0,0.02054188,97.15326,-61.563495)">
        <g
           id="g1327"
           transform="matrix(3.3451117,0,0,3.3451075,277.7359,1100.2048)"
           style="clip-rule:evenodd;fill:#d8d8d8;fill-opacity:1;fill-rule:evenodd;stroke-linejoin:round;stroke-miterlimit:1.41421" />
        <g
           id="g1331"
           transform="matrix(3.3451117,0,0,3.3451075,277.7359,1100.2048)"
           style="clip-rule:evenodd;fill:#d8d8d8;fill-opacity:1;fill-rule:evenodd;stroke-linejoin:round;stroke-miterlimit:1.41421" />
        <g
           id="g1335"
           transform="matrix(3.3451117,0,0,3.3451075,277.7359,1100.2048)"
           style="clip-rule:evenodd;fill:#d8d8d8;fill-opacity:1;fill-rule:evenodd;stroke-linejoin:round;stroke-miterlimit:1.41421" />
        <g
           id="g1339"
           transform="matrix(3.3451117,0,0,3.3451075,277.7359,1100.2048)"
           style="clip-rule:evenodd;fill:#d8d8d8;fill-opacity:1;fill-rule:evenodd;stroke-linejoin:round;stroke-miterlimit:1.41421" />
        <g
           id="g1343"
           transform="matrix(3.3451117,0,0,3.3451075,277.7359,1100.2048)"
           style="clip-rule:evenodd;fill:#d8d8d8;fill-opacity:1;fill-rule:evenodd;stroke-linejoin:round;stroke-miterlimit:1.41421" />
        <g
           id="g1347"
           transform="matrix(3.3451117,0,0,3.3451075,277.7359,1100.2048)"
           style="clip-rule:evenodd;fill:#d8d8d8;fill-opacity:1;fill-rule:evenodd;stroke-linejoin:round;stroke-miterlimit:1.41421" />
        <g
           id="g1351"
           transform="matrix(3.3451117,0,0,3.3451075,277.7359,1100.2048)"
           style="clip-rule:evenodd;fill:#d8d8d8;fill-opacity:1;fill-rule:evenodd;stroke-linejoin:round;stroke-miterlimit:1.41421" />
      </g>
      <g
         transform="matrix(0.04039667,0,0,0.04039667,81.604348,-55.892386)"
         style="clip-rule:evenodd;fill:#ffffff;fill-opacity:1;fill-rule:evenodd;stroke-linejoin:round;stroke-miterlimit:1.41421"
         id="g1367">
        <g
           transform="matrix(3.3451117,0,0,3.3451075,277.7359,1100.2048)"
           id="g1361"
           style="fill:#ffffff;fill-opacity:1" />
        <g
           transform="matrix(3.3451117,0,0,3.3451075,277.7359,1100.2048)"
           id="g1365"
           style="fill:#ffffff;fill-opacity:1">
          <path
             d="m 146.2853,-393.64167 c 0.18407,-2.971 1.61987,-5.58638 3.8148,-7.44113 2.15001,-1.82237 5.04776,-2.93419 8.20762,-2.93419 3.15509,0 6.05283,1.11182 8.20617,2.93419 2.19418,1.8555 3.6484,4.47124 3.8148,7.43818 0.18409,3.052 -1.06028,5.88642 -3.2103,7.98747 -2.19421,2.13898 -5.31467,3.47905 -8.80919,3.47905 -3.49379,0 -6.62126,-1.34007 -8.81397,-3.47905 -2.1537,-2.10215 -3.37598,-4.93584 -3.21031,-7.98452 z m -19.14477,6.00127 c 0.0202,1.16337 0.39025,3.42016 0.94617,5.18399 1.16705,3.73344 3.15141,7.1871 5.90813,10.23062 2.83111,3.12931 6.31533,5.64124 10.34072,7.4253 4.23081,1.87392 8.81507,2.82743 13.57716,2.82007 4.75397,-0.006 9.33822,-0.97929 13.56942,-2.86792 4.02502,-1.80029 7.50703,-4.32508 10.3326,-7.45512 2.75747,-3.05568 4.73483,-6.51633 5.90666,-10.24941 0.58905,-1.88495 0.96088,-3.80045 1.11182,-5.72147 0.14727,-1.89232 0.0737,-3.78795 -0.18407,-5.68211 -0.52646,-3.69074 -1.80028,-7.1536 -3.76769,-10.31052 -1.79658,-2.90104 -4.11633,-5.44021 -6.87269,-7.57771 l 0.006,-0.004 -27.81588,-21.3577 c -0.025,-0.0183 -0.0368,-0.0368 -0.0735,-0.0737 -1.82604,-1.40268 -4.89351,-1.39531 -6.90067,0.008 -2.02854,1.42107 -2.26049,3.76769 -0.45652,5.24877 l -0.008,0.008 11.60164,9.4343 -35.36046,0.0368 h -0.0368 c -2.92315,0.003 -5.73252,1.92177 -6.28843,4.34422 -0.57064,2.47032 1.41371,4.51688 4.45245,4.52756 l -0.004,0.0112 17.92285,-0.0343 -31.98228,24.54888 c -0.0368,0.0302 -0.0737,0.0737 -0.11048,0.0737 -3.018858,2.30832 -3.992263,6.15184 -2.09112,8.58276 1.92913,2.47401 6.02926,2.47769 9.07759,0.0148 l 17.45491,-14.28548 c 0,0 -0.2577,1.92912 -0.2209,3.08513 z m 44.85295,6.45779 c -3.59686,3.66314 -8.63173,5.7421 -14.08005,5.75279 -5.45603,0.0102 -10.49091,-2.05063 -14.08778,-5.70714 -1.7561,-1.78185 -3.04832,-3.83358 -3.84463,-6.01821 -0.78049,-2.14634 -1.08237,-4.42594 -0.88358,-6.72506 0.1841,-2.24943 0.85781,-4.39134 1.92545,-6.33079 1.04925,-1.90703 2.49241,-3.62999 4.27833,-5.08713 3.49746,-2.84953 7.94697,-4.39099 12.60191,-4.39724 4.65973,-0.006 9.10738,1.52047 12.60669,4.36116 1.78186,1.45051 3.22503,3.16979 4.27353,5.0713 1.07134,1.9365 1.7377,4.074 1.9365,6.32784 0.18407,2.29728 -0.11049,4.57174 -0.88726,6.72029 -0.79888,2.1905 -2.08374,4.24186 -3.84168,6.03219 z"
             style="fill:#ffffff;fill-opacity:1;fill-rule:nonzero;stroke-width:9.74073"
             id="path2484" />
        </g>
      </g>
    </g>
  </g>
</svg>
