<?xml version="1.0" encoding="UTF-8" standalone="no"?>
<!-- Created with Inkscape (http://www.inkscape.org/) -->

<svg
   width="60"
   height="60"
   viewBox="0 0 15.875 15.875"
   version="1.1"
   id="svg5"
   inkscape:version="1.1.1 (3bf5ae0d25, 2021-09-20)"
   sodipodi:docname="delete.svg"
   xmlns:inkscape="http://www.inkscape.org/namespaces/inkscape"
   xmlns:sodipodi="http://sodipodi.sourceforge.net/DTD/sodipodi-0.dtd"
   xmlns="http://www.w3.org/2000/svg"
   xmlns:svg="http://www.w3.org/2000/svg">
  <sodipodi:namedview
     id="namedview7"
     pagecolor="#ffffff"
     bordercolor="#999999"
     borderopacity="1"
     inkscape:pageshadow="0"
     inkscape:pageopacity="0"
     inkscape:pagecheckerboard="0"
     inkscape:document-units="mm"
     showgrid="false"
     units="px"
     inkscape:zoom="5.9580247"
     inkscape:cx="46.072317"
     inkscape:cy="55.723166"
     inkscape:window-width="1920"
     inkscape:window-height="1019"
     inkscape:window-x="0"
     inkscape:window-y="0"
     inkscape:window-maximized="1"
     inkscape:current-layer="layer1" />
  <defs
     id="defs2" />
  <g
     inkscape:label="Layer 1"
     inkscape:groupmode="layer"
     id="layer1">
    <g
       style="fill:#000000"
       id="g833"
       transform="scale(0.52916667)">
      <path
         d="M 7,4 C 6.744125,4 6.4879687,4.0974687 6.2929688,4.2929688 l -2,2 c -0.3910001,0.391 -0.3910001,1.0240625 0,1.4140624 L 11.585938,15 4.2929688,22.292969 c -0.3910001,0.391 -0.3910001,1.024062 0,1.414062 l 2,2 c 0.391,0.391 1.0240625,0.391 1.4140624,0 L 15,18.414062 l 7.292969,7.292969 c 0.39,0.391 1.024062,0.391 1.414062,0 l 2,-2 c 0.391,-0.391 0.391,-1.024062 0,-1.414062 L 18.414062,15 25.707031,7.7070312 c 0.391,-0.39 0.391,-1.0240624 0,-1.4140624 l -2,-2 c -0.391,-0.3910001 -1.024062,-0.3910001 -1.414062,0 L 15,11.585938 7.7070312,4.2929688 C 7.5115312,4.0974687 7.255875,4 7,4 Z"
         id="path824" />
    </g>
  </g>
</svg>
